<?xml version="1.0" encoding="UTF-8"?>
<svg id="Layer_1" data-name="Layer 1" xmlns="http://www.w3.org/2000/svg" viewBox="0 0 200 60">
  <defs>
    <style>
      .cls-1 {
        fill: #ffbd5c;
      }

      .cls-2 {
        fill: none;
      }
    </style>
  </defs>
  <path class="cls-2" d="m43.15,29.06c2.34-2.14,3.17-4.76,2.61-7.84-.58-3.19-3.61-5.82-6.79-5.85-4.51-.03-9.02-.02-13.53,0-1.63,0-2.75,1.15-2.76,2.79,0,1.64,0,3.29,0,4.93,0,1.9,1.15,3.04,3.05,3.05,1.36,0,2.72,0,4.07,0,.17,0,.34,0,.54,0-.02.09-.02.11-.03.12-2.17,2.03-4.35,4.05-6.52,6.09-1.89,1.78-2.82,3.93-2.59,6.56.3,3.56,2.99,6.06,6.57,6.07,4.29.01,8.58,0,12.87,0,1.07,0,2.15.03,3.22-.04,1.4-.09,2.27-1.46,1.72-2.64-.43-.9-1.22-1.16-2.15-1.16-5,0-10,.01-14.99.01-.3,0-.6,0-.89-.04-1.15-.13-2.07-.91-2.33-2.03-.38-1.61.11-2.96,1.31-4.08,3.14-2.96,6.28-5.93,9.41-8.9.56-.53,1.14-1.05,1.66-1.62.53-.6.44-1.38-.22-1.8-.3-.19-.71-.29-1.07-.3-3.04-.02-6.08,0-9.13,0-.18,0-.37,0-.57,0v-3.25c.09,0,.18-.02.27-.02,3.91,0,7.82,0,11.73.01.83,0,1.56.33,2.17.9,1.65,1.55,1.68,4.39,0,6.04-2.37,2.31-4.81,4.56-7.22,6.83-1.25,1.17-2.51,2.33-3.76,3.49-.3.27-.44.59-.29.98.14.36.46.42.81.41.69,0,1.39,0,2.08,0,3.86,0,7.71,0,11.57,0,.81,0,1.42-.34,1.76-1.08.31-.66.12-1.48-.41-2.03-.46-.47-1.03-.63-1.66-.63-1.77,0-3.53,0-5.3,0-.13,0-.26,0-.39,0-.02-.04-.04-.07-.07-.11.11-.08.22-.14.32-.23,1.64-1.54,3.27-3.1,4.93-4.62Z"/>
  <path class="cls-1" d="m59.96,12.27c0-.47-.06-.94-.16-1.4-1.06-5.02-5.36-8.51-10.51-8.52-10.13,0-20.27,0-30.4,0-.96,0-1.93.03-2.87.19-5.16.9-8.86,5.42-8.84,10.28.02,5.77,0,11.53,0,17.3h0c0,5.8-.04,11.6.02,17.4.04,3.62,1.66,6.48,4.58,8.58,1.84,1.33,3.95,1.89,6.21,1.89,7.88,0,15.76.01,23.64.02,2.69,0,5.38.03,8.07-.01,6.54-.11,10.27-5.48,10.27-10.08.01-11.88,0-23.76-.01-35.64Zm-8.99,41.57c-.49.12-1,.18-1.5.18-10.5,0-21-.03-31.5.03-3.32.02-6.57-2.83-6.77-6.42-.07-1.25-.04-2.52-.04-3.77,0-10.24,0-20.48.03-30.72,0-3.34,2.46-6.22,5.74-6.76.43-.07.87-.07,1.31-.07,10.31,0,20.62.03,30.93-.02,2.57-.01,5.53,1.84,6.42,4.55.24.72.36,1.5.36,2.26.03,5.71.02,11.43.02,17.14h0c0,5.63-.04,11.25.01,16.88.03,3.57-2.39,6.09-5,6.74Z"/>
  <path class="cls-1" d="m23.67,50.68c-.59,0-1.19,0-1.78,0-3.29-.07-6.46-2.94-6.81-6.22-.1-.97-.05-1.95-.09-2.93-.02-.57-.33-.91-.8-.92-.47-.01-.79.33-.81.9-.02.52,0,1.05,0,1.57h0c0,.19,0,.38,0,.58-.13,3.43,2.51,7.32,6.46,8.31,1.23.31,2.56.21,3.85.26.59.02,1.02-.34,1-.77-.02-.44-.44-.77-1.02-.78Z"/>
  <path class="cls-1" d="m53.87,42.31c0-.23,0-.45,0-.68,0-.6-.31-.98-.78-1-.47-.02-.8.33-.83.94-.04.77-.04,1.54-.05,2.3-.05,3.24-2.57,6.19-5.78,6.69-.94.15-1.91.08-2.87.13-.56.03-.84.32-.82.81.02.44.32.72.85.73.7.01,1.4,0,2.1,0,1.95-.02,3.66-.73,5.11-2,2.19-1.91,3.24-4.33,3.07-7.25,0-.23,0-.45,0-.68Z"/>
  <path class="cls-1" d="m43.66,9.69c.56,0,1.12,0,1.68,0,3.05-.02,6.84,2.77,6.9,6.71,0,.61,0,1.22.05,1.83.03.46.33.73.79.76.42.02.8-.34.78-.82-.05-1.25-.01-2.53-.27-3.74-.63-2.91-3.86-6.52-8.69-6.25-.28,0-.77-.01-1.26,0-.59.02-.89.27-.89.72,0,.45.37.78.92.78Z"/>
  <path class="cls-1" d="m14.16,18.99c.39.02.79-.36.82-.81.03-.56-.01-1.12.03-1.67.04-.57.06-1.16.24-1.7.79-2.44,2.43-4.13,4.9-4.81,1.13-.31,2.38-.23,3.57-.31.54-.04.93-.35.93-.79,0-.41-.38-.73-.91-.74-.49-.01-.98,0-1.47,0,0-.04-2.13.07-3.08.43-4.02,1.51-6.31,4.94-5.78,9.68.05.45.32.7.76.72Z"/>
  <path class="cls-1" d="m53.04,27.9c-.24-2.37-.85-4.63-1.89-6.77-.39-.81-.99-1.56-1.19-2.41-.2-.86,0-1.81-.04-2.71-.02-.5-.08-1.02-.28-1.47-.66-1.55-2.33-2.3-4.05-1.85-.51.14-.92.15-1.39-.17-2.1-1.44-4.42-2.4-6.92-2.84-1.35-.24-2.69-.38-3.55-1.63-.02-.02-.06-.02-.11-.04-.41.37-.81.76-1.24,1.11-.15.12-.36.22-.55.23-2.95.29-5.7,1.2-8.2,2.79-.46.29-.83.38-1.38.24-1.36-.34-2.62,0-3.61,1-.98.99-1.24,2.22-.82,3.53.17.53.11.92-.22,1.32-.18.21-.32.46-.46.7-1.73,2.82-2.77,5.86-3,9.17-.01.2-.14.42-.28.56-.45.48-.93.93-1.43,1.41.5.47.97.89,1.41,1.33.15.16.28.38.33.59.33,1.44.55,2.92.98,4.33.67,2.24,1.78,4.28,3.3,6.09-.12.2-.24.38-.34.56-.49.86-.64,1.78-.43,2.73.5,2.32,2.84,3.46,5.16,2.57.19-.07.49-.09.65,0,2.05,1.25,4.26,2.1,6.64,2.46,1.34.2,2.68.27,3.46,1.68.43-.4.77-.68,1.07-.99.3-.31.62-.42,1.05-.46,2.91-.25,5.64-1.1,8.17-2.58.3-.17.51-.22.85-.08,2.39,1,5.3-.55,5.2-3.36-.04-1.06.02-2.13-.02-3.2-.02-.46.1-.84.33-1.22,1.56-2.66,2.48-5.53,2.8-8.6.02-.17.11-.36.24-.48.47-.47.96-.91,1.57-1.47-.5-.44-.99-.83-1.42-1.29-.2-.21-.35-.52-.38-.8Zm-15.08,6.12c.13,0,.26,0,.39,0,1.77,0,3.53,0,5.3,0,.63,0,1.21.17,1.66.63.54.55.72,1.37.41,2.03-.34.74-.96,1.08-1.76,1.08-3.86,0-7.71,0-11.57,0-.69,0-1.39,0-2.08,0-.34,0-.67-.05-.81-.41-.15-.39,0-.71.29-.98,1.26-1.16,2.52-2.32,3.76-3.49,2.41-2.27,4.85-4.52,7.22-6.83,1.69-1.65,1.65-4.5,0-6.04-.61-.57-1.34-.9-2.17-.9-3.91-.02-7.82-.01-11.73-.01-.09,0-.18.01-.27.02v3.25c.21,0,.39,0,.57,0,3.04,0,6.08-.01,9.13,0,.36,0,.77.11,1.07.3.66.41.76,1.2.22,1.8-.51.58-1.1,1.09-1.66,1.62-3.14,2.97-6.27,5.94-9.41,8.9-1.19,1.12-1.69,2.47-1.31,4.08.27,1.12,1.19,1.9,2.33,2.03.3.03.6.04.89.04,5,0,10,0,14.99-.01.94,0,1.73.26,2.15,1.16.56,1.18-.31,2.55-1.72,2.64-1.07.07-2.14.04-3.22.04-4.29,0-8.58,0-12.87,0-3.59-.01-6.27-2.52-6.57-6.07-.22-2.63.7-4.78,2.59-6.56,2.17-2.03,4.34-4.06,6.52-6.09,0,0,0-.03.03-.12-.2,0-.37,0-.54,0-1.36,0-2.72,0-4.07,0-1.89,0-3.04-1.15-3.05-3.05,0-1.64,0-3.29,0-4.93,0-1.63,1.12-2.78,2.76-2.79,4.51-.01,9.02-.03,13.53,0,3.18.02,6.21,2.66,6.79,5.85.56,3.08-.27,5.71-2.61,7.84-1.67,1.52-3.29,3.08-4.93,4.62-.1.09-.21.16-.32.23.02.04.04.07.07.11Z"/>
  <g>
    <g>
      <path class="cls-1" d="m75.29,51.65l-2.19-2.03c-.48.14-.98.21-1.5.21-.91,0-1.73-.21-2.47-.64s-1.32-1.02-1.74-1.78c-.42-.76-.64-1.62-.64-2.58s.21-1.82.64-2.58c.42-.76,1.01-1.36,1.74-1.78s1.56-.64,2.47-.64,1.74.21,2.48.64,1.32,1.02,1.74,1.78c.42.76.63,1.62.63,2.58s-.22,1.87-.66,2.64c-.44.77-1.04,1.36-1.81,1.77l2.62,2.41h-1.32Zm-7.02-4.63c.34.63.79,1.11,1.37,1.45.58.34,1.23.5,1.96.5s1.38-.17,1.96-.5c.58-.34,1.04-.82,1.37-1.45.34-.63.5-1.36.5-2.19s-.17-1.56-.5-2.18c-.34-.63-.79-1.11-1.37-1.44-.58-.34-1.23-.5-1.96-.5s-1.38.17-1.96.5c-.58.34-1.04.82-1.37,1.44-.34.62-.5,1.35-.5,2.18s.17,1.56.5,2.19Z"/>
      <path class="cls-1" d="m79.2,39.94v6.16c0,.97.23,1.69.69,2.15.46.47,1.09.7,1.9.7s1.43-.23,1.88-.69.68-1.18.68-2.16v-6.16h.98v6.15c0,1.24-.33,2.17-.99,2.8-.66.63-1.52.94-2.57.94s-1.91-.31-2.57-.94c-.66-.63-.99-1.56-.99-2.8v-6.15h.98Z"/>
      <path class="cls-1" d="m92.73,49.73l-2.42-4.09h-1.81v4.09h-.98v-9.79h2.94c1.09,0,1.92.26,2.49.79.57.52.85,1.21.85,2.06,0,.71-.2,1.31-.61,1.81s-1.01.82-1.8.97l2.52,4.16h-1.18Zm-4.23-4.89h1.97c.77,0,1.34-.18,1.73-.56s.58-.87.58-1.5-.19-1.14-.56-1.49-.96-.53-1.76-.53h-1.96v4.07Z"/>
      <path class="cls-1" d="m101.42,47.41h-4.45l-.85,2.32h-1.04l3.57-9.67h1.11l3.56,9.67h-1.04l-.85-2.32Zm-.29-.81l-1.93-5.3-1.93,5.3h3.86Z"/>
      <path class="cls-1" d="m112.26,49.73h-.98l-5.42-8.24v8.24h-.98v-9.79h.98l5.42,8.22v-8.22h.98v9.79Z"/>
      <path class="cls-1" d="m127.89,40.07v9.67h-.98v-7.72l-3.45,7.72h-.71l-3.45-7.69v7.69h-.98v-9.67h1.04l3.74,8.38,3.74-8.38h1.05Z"/>
      <path class="cls-1" d="m132.05,49.19c-.74-.42-1.32-1.02-1.74-1.78-.42-.76-.64-1.62-.64-2.58s.21-1.82.64-2.58c.42-.76,1.01-1.36,1.74-1.78s1.56-.64,2.47-.64,1.74.21,2.48.64,1.32,1.02,1.74,1.78c.42.76.63,1.62.63,2.58s-.21,1.82-.63,2.58c-.42.76-1,1.36-1.74,1.78s-1.56.64-2.48.64-1.73-.21-2.47-.64Zm4.43-.72c.58-.34,1.04-.82,1.37-1.45.34-.63.5-1.36.5-2.19s-.17-1.56-.5-2.18c-.34-.63-.79-1.11-1.37-1.44-.58-.34-1.23-.5-1.96-.5s-1.38.17-1.96.5c-.58.34-1.04.82-1.37,1.44-.34.62-.5,1.35-.5,2.18s.17,1.56.5,2.19c.34.63.79,1.11,1.37,1.45.58.34,1.23.5,1.96.5s1.38-.17,1.96-.5Z"/>
      <path class="cls-1" d="m147.13,45.52c.38.46.57.99.57,1.6,0,.5-.12.94-.37,1.34s-.61.71-1.09.94-1.05.34-1.71.34h-3.39v-9.79h3.29c.99,0,1.74.23,2.26.69s.78,1.05.78,1.78c0,.61-.16,1.1-.49,1.48s-.75.64-1.26.79c.55.1,1.02.38,1.4.84Zm-5-1.25h2.28c.66,0,1.17-.16,1.53-.47.36-.31.54-.74.54-1.3s-.18-.96-.54-1.27c-.36-.31-.88-.46-1.57-.46h-2.24v3.5Zm4,4.13c.4-.34.6-.8.6-1.39s-.21-1.06-.62-1.41c-.42-.35-.97-.53-1.67-.53h-2.3v3.82h2.34c.71,0,1.26-.17,1.66-.5Z"/>
      <path class="cls-1" d="m150.49,39.94v9.79h-.98v-9.79h.98Z"/>
      <path class="cls-1" d="m153.7,48.93h3.52v.8h-4.5v-9.79h.98v8.99Z"/>
      <path class="cls-1" d="m159.6,40.74v3.66h3.71v.81h-3.71v3.71h4.13v.81h-5.11v-9.81h5.11v.81h-4.13Z"/>
      <path class="cls-1" d="m175.17,47.41h-4.45l-.85,2.32h-1.04l3.57-9.67h1.11l3.56,9.67h-1.04l-.85-2.32Zm-.29-.81l-1.93-5.3-1.93,5.3h3.86Z"/>
      <path class="cls-1" d="m184.07,44.79c-.55.51-1.38.77-2.48.77h-1.97v4.17h-.98v-9.79h2.96c1.09,0,1.92.26,2.47.77.56.51.83,1.2.83,2.05s-.28,1.52-.83,2.03Zm-.18-2.03c0-.65-.18-1.15-.55-1.49-.36-.34-.95-.5-1.75-.5h-1.97v3.95h1.97c1.53,0,2.3-.65,2.3-1.96Z"/>
      <path class="cls-1" d="m191.97,44.79c-.55.51-1.38.77-2.48.77h-1.97v4.17h-.98v-9.79h2.96c1.09,0,1.92.26,2.47.77.56.51.83,1.2.83,2.05s-.28,1.52-.83,2.03Zm-.18-2.03c0-.65-.18-1.15-.55-1.49-.36-.34-.95-.5-1.75-.5h-1.97v3.95h1.97c1.53,0,2.3-.65,2.3-1.96Z"/>
    </g>
    <g>
      <polygon class="cls-1" points="99.27 18.29 99.27 8.72 66.95 8.72 66.95 18.73 80.55 18.73 66.72 26.43 66.72 36 99.35 36 99.35 25.98 85.56 25.98 99.27 18.29"/>
      <path class="cls-1" d="m111.89,8.72l-10.76,27.28h13.94l1.01-2.88h8.45l1.01,2.88h13.94l-10.8-27.28h-16.78Zm6.46,16.03l1.94-6.13,1.94,6.13h-3.89Z"/>
      <path class="cls-1" d="m167.78,22.36v-.07c4.22-.56,7.88-2.58,7.88-6.5,0-3.66-3.44-7.06-14.09-7.06h-20.33v27.28h20.33c11.47,0,14.87-3.4,14.87-7.06,0-3.92-4.33-6.02-8.67-6.58Zm-13.42-5.12h5.19c1.49,0,2.02.49,2.02,1.2s-.52,1.27-1.98,1.27h-5.23v-2.47Zm5.68,10.24h-5.68v-2.47h5.75c1.68,0,2.2.52,2.2,1.27s-.49,1.2-2.28,1.2Z"/>
      <rect class="cls-1" x="178.22" y="8.72" width="14.61" height="27.28"/>
    </g>
  </g>
</svg>