<?xml version="1.0" encoding="UTF-8"?>
<svg id="Layer_1" data-name="Layer 1" xmlns="http://www.w3.org/2000/svg" viewBox="0 0 500 500">
  <defs>
    <style>
      .cls-1 {
        fill: #fff;
      }

      .cls-2 {
        opacity: .5;
      }

      .cls-3 {
        fill: #2e4160;
      }

      .cls-4 {
        fill: #14294c;
      }
    </style>
  </defs>
  <g>
    <path class="cls-4" d="m164.57,443.24c-51.74-22.87-91.49-64.47-111.94-117.15-20.45-52.67-19.15-110.1,3.67-161.72,22.82-51.62,64.42-91.24,117.14-111.56,52.72-20.33,110.25-18.92,161.98,3.95,51.74,22.87,91.49,64.47,111.94,117.15,20.45,52.67,19.15,110.11-3.67,161.72-22.82,51.62-64.42,91.24-117.14,111.56-52.72,20.33-110.25,18.92-161.98-3.95ZM333.89,60.22c-50.81-22.46-107.31-23.84-159.08-3.88-51.77,19.96-92.63,58.87-115.04,109.56-22.41,50.69-23.69,107.1-3.61,158.82,20.08,51.73,59.13,92.58,109.94,115.05,50.81,22.46,107.31,23.84,159.08,3.88,51.77-19.96,92.63-58.87,115.04-109.56,22.41-50.69,23.69-107.1,3.61-158.82-20.08-51.73-59.13-92.58-109.94-115.05Z"/>
    <g>
      <rect class="cls-4" x="327.2" y="45.41" width="25.05" height="3.25" transform="translate(159.35 338.73) rotate(-66.15)"/>
      <rect class="cls-4" x="147.75" y="451.34" width="25.05" height="3.25" transform="translate(-318.82 416.41) rotate(-66.15)"/>
      <rect class="cls-4" x="294.25" y="38.02" width="15.2" height="2.53" transform="translate(191.58 323.01) rotate(-76.18)"/>
      <rect class="cls-4" x="190.54" y="459.45" width="15.2" height="2.53" transform="translate(-296.58 543) rotate(-76.17)"/>
      <polygon class="cls-4" points="262.64 40.93 263.64 25.76 266.17 25.93 265.16 41.1 262.64 40.93"/>
      <polygon class="cls-4" points="233.83 474.07 234.84 458.9 237.36 459.07 236.35 474.24 233.83 474.07"/>
      <polygon class="cls-4" points="226.08 41.85 224.43 26.74 226.95 26.47 228.59 41.58 226.08 41.85"/>
      <polygon class="cls-4" points="273.05 473.53 271.4 458.42 273.92 458.15 275.56 473.26 273.05 473.53"/>
      <polygon class="cls-4" points="190.25 49.1 186 34.49 188.43 33.79 192.68 48.4 190.25 49.1"/>
      <polygon class="cls-4" points="311.57 466.21 307.32 451.6 309.75 450.9 314 465.51 311.57 466.21"/>
      <polygon class="cls-4" points="156.23 62.45 149.51 48.8 151.78 47.69 158.5 61.34 156.23 62.45"/>
      <polygon class="cls-4" points="348.22 452.31 341.5 438.66 343.76 437.55 350.49 451.2 348.22 452.31"/>
      <polygon class="cls-4" points="125.07 81.5 116.07 69.21 118.11 67.73 127.11 80.01 125.07 81.5"/>
      <polygon class="cls-4" points="381.89 432.27 372.89 419.99 374.93 418.5 383.93 430.78 381.89 432.27"/>
      <polygon class="cls-4" points="97.7 105.67 86.7 95.13 88.46 93.31 99.45 103.85 97.7 105.67"/>
      <polygon class="cls-4" points="411.54 406.69 400.55 396.15 402.3 394.33 413.29 404.87 411.54 406.69"/>
      <rect class="cls-4" x="68.07" y="121.32" width="2.52" height="15.23" transform="translate(-76.38 114.78) rotate(-56.18)"/>
      <rect class="cls-4" x="429.41" y="363.45" width="2.52" height="15.23" transform="translate(-117.32 522.3) rotate(-56.18)"/>
      <rect class="cls-4" x="44.94" y="147.51" width="3.24" height="25.11" transform="translate(-118.66 137.93) rotate(-66.15)"/>
      <rect class="cls-4" x="451.82" y="327.38" width="3.24" height="25.11" transform="translate(-40.8 617.22) rotate(-66.15)"/>
      <rect class="cls-4" x="37.6" y="190.24" width="2.52" height="15.23" transform="translate(-162.55 188.3) rotate(-76.17)"/>
      <rect class="cls-4" x="459.88" y="294.52" width="2.52" height="15.23" transform="translate(57.53 677.69) rotate(-76.17)"/>
      <polygon class="cls-4" points="25.38 235.98 25.55 233.46 40.75 234.5 40.58 237.02 25.38 235.98"/>
      <polygon class="cls-4" points="459.26 265.5 459.42 262.98 474.62 264.01 474.45 266.53 459.26 265.5"/>
      <polygon class="cls-4" points="26.43 275.13 26.15 272.62 41.29 271.01 41.57 273.52 26.43 275.13"/>
      <polygon class="cls-4" points="458.71 228.99 458.44 226.48 473.57 224.86 473.85 227.37 458.71 228.99"/>
      <polygon class="cls-4" points="34.26 313.52 33.56 311.1 48.18 306.88 48.89 309.31 34.26 313.52"/>
      <polygon class="cls-4" points="451.82 193.12 451.12 190.69 465.74 186.47 466.45 188.9 451.82 193.12"/>
      <polygon class="cls-4" points="48.65 349.98 47.54 347.71 61.2 341.02 62.32 343.29 48.65 349.98"/>
      <polygon class="cls-4" points="438.8 158.97 437.69 156.7 451.35 150.01 452.46 152.28 438.8 158.97"/>
      <polygon class="cls-4" points="69.16 383.4 67.67 381.36 79.96 372.4 81.45 374.44 69.16 383.4"/>
      <polygon class="cls-4" points="420.05 127.59 418.55 125.55 430.84 116.6 432.33 118.64 420.05 127.59"/>
      <polygon class="cls-4" points="95.17 412.76 93.34 411.01 103.88 400.06 105.71 401.81 95.17 412.76"/>
      <polygon class="cls-4" points="396.12 99.93 394.3 98.18 404.83 87.23 406.66 88.98 396.12 99.93"/>
      <rect class="cls-4" x="121.46" y="428.91" width="15.2" height="2.53" transform="translate(-300.15 297.96) rotate(-56.18)"/>
      <rect class="cls-4" x="363.34" y="68.56" width="15.2" height="2.53" transform="translate(106.47 339.13) rotate(-56.18)"/>
    </g>
    <g>
      <rect class="cls-4" x="326.04" y="50.39" width="7.51" height="1.08" transform="translate(159.78 338.08) rotate(-68.15)"/>
      <rect class="cls-4" x="166.45" y="448.52" width="7.51" height="1.08" transform="translate(-309.95 439.97) rotate(-68.16)"/>
      <rect class="cls-4" x="319.03" y="47.72" width="7.51" height="1.08" transform="translate(167.81 335.5) rotate(-70.16)"/>
      <rect class="cls-4" x="173.46" y="451.19" width="7.51" height="1.08" transform="translate(-307.85 465.1) rotate(-70.16)"/>
      <rect class="cls-4" x="311.93" y="45.3" width="7.51" height="1.08" transform="translate(175.33 332.29) rotate(-72.16)"/>
      <rect class="cls-4" x="180.56" y="453.62" width="7.51" height="1.08" transform="translate(-304.47 490.5) rotate(-72.16)"/>
      <rect class="cls-4" x="304.75" y="43.12" width="7.51" height="1.08" transform="translate(182.31 328.54) rotate(-74.16)"/>
      <rect class="cls-4" x="187.74" y="455.8" width="7.51" height="1.08" transform="translate(-299.77 516.09) rotate(-74.17)"/>
      <polygon class="cls-4" points="292.64 43.63 294.18 36.28 295.24 36.5 293.7 43.85 292.64 43.63"/>
      <rect class="cls-4" x="202.3" y="459.39" width="7.51" height="1.08" transform="translate(-286.33 567.42) rotate(-78.18)"/>
      <polygon class="cls-4" points="285.39 42.25 286.68 34.86 287.74 35.04 286.46 42.44 285.39 42.25"/>
      <polygon class="cls-4" points="212.25 464.96 213.53 457.56 214.6 457.74 213.32 465.14 212.25 464.96"/>
      <polygon class="cls-4" points="278.11 41.14 279.13 33.69 280.2 33.84 279.18 41.28 278.11 41.14"/>
      <polygon class="cls-4" points="219.79 466.16 220.81 458.71 221.89 458.86 220.86 466.31 219.79 466.16"/>
      <polygon class="cls-4" points="270.79 40.27 271.55 32.8 272.63 32.91 271.87 40.38 270.79 40.27"/>
      <polygon class="cls-4" points="227.37 467.09 228.13 459.61 229.2 459.73 228.44 467.2 227.37 467.09"/>
      <polygon class="cls-4" points="256.08 39.31 256.32 31.8 257.4 31.83 257.17 39.34 256.08 39.31"/>
      <polygon class="cls-4" points="242.59 468.16 242.83 460.65 243.91 460.69 243.68 468.2 242.59 468.16"/>
      <polygon class="cls-4" points="248.71 39.21 248.69 31.7 249.77 31.7 249.8 39.21 248.71 39.21"/>
      <polygon class="cls-4" points="250.22 468.3 250.2 460.79 251.28 460.79 251.31 468.3 250.22 468.3"/>
      <polygon class="cls-4" points="241.35 39.37 241.06 31.87 242.14 31.83 242.43 39.33 241.35 39.37"/>
      <polygon class="cls-4" points="257.86 468.17 257.57 460.66 258.65 460.62 258.94 468.13 257.86 468.17"/>
      <polygon class="cls-4" points="233.99 39.79 233.44 32.3 234.52 32.22 235.07 39.71 233.99 39.79"/>
      <polygon class="cls-4" points="265.48 467.78 264.93 460.29 266 460.21 266.56 467.7 265.48 467.78"/>
      <polygon class="cls-4" points="219.35 41.39 218.27 33.95 219.34 33.8 220.42 41.24 219.35 41.39"/>
      <polygon class="cls-4" points="280.65 466.2 279.58 458.76 280.65 458.61 281.72 466.05 280.65 466.2"/>
      <polygon class="cls-4" points="212.07 42.57 210.74 35.18 211.81 34.99 213.14 42.38 212.07 42.57"/>
      <polygon class="cls-4" points="288.19 465.01 286.86 457.61 287.92 457.42 289.25 464.82 288.19 465.01"/>
      <polygon class="cls-4" points="204.85 44.01 203.26 36.66 204.32 36.44 205.91 43.78 204.85 44.01"/>
      <polygon class="cls-4" points="295.68 463.56 294.09 456.22 295.15 455.99 296.74 463.34 295.68 463.56"/>
      <polygon class="cls-4" points="197.68 45.69 195.83 38.41 196.88 38.15 198.73 45.43 197.68 45.69"/>
      <polygon class="cls-4" points="303.11 461.85 301.27 454.57 302.32 454.3 304.16 461.59 303.11 461.85"/>
      <polygon class="cls-4" points="183.54 49.81 181.19 42.67 182.22 42.33 184.57 49.48 183.54 49.81"/>
      <polygon class="cls-4" points="317.78 457.67 315.43 450.52 316.46 450.19 318.81 457.33 317.78 457.67"/>
      <polygon class="cls-4" points="176.59 52.24 173.99 45.18 175 44.81 177.6 51.87 176.59 52.24"/>
      <polygon class="cls-4" points="324.99 455.19 322.4 448.13 323.41 447.76 326.01 454.82 324.99 455.19"/>
      <polygon class="cls-4" points="169.72 54.9 166.88 47.94 167.88 47.54 170.72 54.5 169.72 54.9"/>
      <polygon class="cls-4" points="332.12 452.46 329.27 445.5 330.27 445.1 333.12 452.06 332.12 452.46"/>
      <polygon class="cls-4" points="162.95 57.81 159.87 50.95 160.86 50.51 163.94 57.37 162.95 57.81"/>
      <polygon class="cls-4" points="339.14 449.49 336.05 442.63 337.04 442.19 340.12 449.05 339.14 449.49"/>
      <polygon class="cls-4" points="149.75 64.31 146.2 57.69 147.15 57.18 150.71 63.81 149.75 64.31"/>
      <polygon class="cls-4" points="352.85 442.82 349.29 436.19 350.25 435.68 353.8 442.31 352.85 442.82"/>
      <polygon class="cls-4" points="143.33 67.91 139.54 61.41 140.48 60.87 144.26 67.37 143.33 67.91"/>
      <polygon class="cls-4" points="359.52 439.13 355.73 432.63 356.67 432.09 360.45 438.59 359.52 439.13"/>
      <polygon class="cls-4" points="137.03 71.73 133.03 65.36 133.94 64.79 137.95 71.15 137.03 71.73"/>
      <polygon class="cls-4" points="366.06 435.21 362.05 428.85 362.96 428.27 366.97 434.64 366.06 435.21"/>
      <polygon class="cls-4" points="130.88 75.76 126.65 69.54 127.55 68.93 131.77 75.16 130.88 75.76"/>
      <polygon class="cls-4" points="372.45 431.07 368.22 424.84 369.12 424.24 373.35 430.46 372.45 431.07"/>
      <polygon class="cls-4" points="119.01 84.46 114.36 78.55 115.21 77.88 119.86 83.79 119.01 84.46"/>
      <polygon class="cls-4" points="384.79 422.12 380.14 416.21 380.99 415.54 385.64 421.45 384.79 422.12"/>
      <polygon class="cls-4" points="113.31 89.11 108.46 83.37 109.28 82.67 114.14 88.42 113.31 89.11"/>
      <polygon class="cls-4" points="390.72 417.33 385.86 411.58 386.69 410.88 391.55 416.63 390.72 417.33"/>
      <polygon class="cls-4" points="107.78 93.97 102.73 88.39 103.53 87.67 108.58 93.24 107.78 93.97"/>
      <polygon class="cls-4" points="396.47 412.33 391.42 406.76 392.22 406.03 397.28 411.61 396.47 412.33"/>
      <polygon class="cls-4" points="102.42 99.01 97.18 93.61 97.95 92.86 103.2 98.26 102.42 99.01"/>
      <polygon class="cls-4" points="402.05 407.14 396.8 401.74 397.58 400.99 402.82 406.39 402.05 407.14"/>
      <polygon class="cls-4" points="92.25 109.63 86.64 104.62 87.36 103.81 92.97 108.83 92.25 109.63"/>
      <polygon class="cls-4" points="412.64 396.19 407.03 391.17 407.75 390.36 413.36 395.38 412.64 396.19"/>
      <polygon class="cls-4" points="87.45 115.21 81.67 110.39 82.36 109.56 88.14 114.38 87.45 115.21"/>
      <rect class="cls-4" x="414.56" y="383.85" width="1.08" height="7.53" transform="translate(-148.44 458.19) rotate(-50.18)"/>
      <rect class="cls-4" x="79.66" y="114.45" width="1.08" height="7.53" transform="translate(-62.36 109.08) rotate(-52.18)"/>
      <polygon class="cls-4" points="422.44 384.52 416.49 379.91 417.15 379.05 423.1 383.67 422.44 384.52"/>
      <rect class="cls-4" x="75.17" y="120.44" width="1.08" height="7.53" transform="translate(-69.31 112.86) rotate(-54.16)"/>
      <polygon class="cls-4" points="427.02 378.44 420.92 374.03 421.55 373.16 427.66 377.56 427.02 378.44"/>
      <rect class="cls-4" x="66.83" y="132.87" width="1.08" height="7.53" transform="translate(-84.24 121.8) rotate(-58.17)"/>
      <rect class="cls-4" x="432.09" y="359.6" width="1.08" height="7.53" transform="translate(-104.27 539.27) rotate(-58.17)"/>
      <rect class="cls-4" x="62.99" y="139.29" width="1.08" height="7.53" transform="translate(-92.17 126.96) rotate(-60.15)"/>
      <rect class="cls-4" x="435.93" y="353.18" width="1.08" height="7.53" transform="translate(-90.35 557.86) rotate(-60.15)"/>
      <rect class="cls-4" x="59.37" y="145.85" width="1.08" height="7.53" transform="translate(-100.36 132.71) rotate(-62.16)"/>
      <rect class="cls-4" x="439.55" y="346.62" width="1.08" height="7.53" transform="translate(-75.23 575.98) rotate(-62.17)"/>
      <rect class="cls-4" x="55.99" y="152.53" width="1.08" height="7.53" transform="translate(-108.77 139) rotate(-64.14)"/>
      <rect class="cls-4" x="442.93" y="339.94" width="1.08" height="7.53" transform="translate(-59.19 592.98) rotate(-64.16)"/>
      <rect class="cls-4" x="49.94" y="166.22" width="1.08" height="7.53" transform="translate(-126.08 153.58) rotate(-68.15)"/>
      <rect class="cls-4" x="448.98" y="326.25" width="1.08" height="7.53" transform="translate(-24.08 624.43) rotate(-68.15)"/>
      <rect class="cls-4" x="47.28" y="173.21" width="1.08" height="7.53" transform="translate(-134.88 161.86) rotate(-70.15)"/>
      <rect class="cls-4" x="451.64" y="319.26" width="1.08" height="7.53" transform="translate(-5.19 638.65) rotate(-70.15)"/>
      <rect class="cls-4" x="44.86" y="180.3" width="1.08" height="7.53" transform="translate(-143.72 170.89) rotate(-72.16)"/>
      <rect class="cls-4" x="454.06" y="312.17" width="1.08" height="7.53" transform="translate(14.75 652.11) rotate(-72.19)"/>
      <rect class="cls-4" x="42.69" y="187.47" width="1.08" height="7.53" transform="translate(-152.54 180.66) rotate(-74.17)"/>
      <rect class="cls-4" x="456.23" y="305.01" width="1.08" height="7.53" transform="translate(35.12 664) rotate(-74.17)"/>
      <polygon class="cls-4" points="35.86 205.52 36.08 204.46 43.45 206.01 43.23 207.07 35.86 205.52"/>
      <polygon class="cls-4" points="456.55 293.99 456.77 292.93 464.14 294.48 463.92 295.54 456.55 293.99"/>
      <rect class="cls-4" x="37.71" y="209.35" width="1.08" height="7.53" transform="translate(-178.27 214.46) rotate(-80.18)"/>
      <polygon class="cls-4" points="457.95 286.76 458.13 285.7 465.55 286.99 465.37 288.06 457.95 286.76"/>
      <polygon class="cls-4" points="33.3 220.53 33.45 219.46 40.9 220.5 40.76 221.57 33.3 220.53"/>
      <polygon class="cls-4" points="459.1 279.5 459.24 278.43 466.7 279.46 466.55 280.53 459.1 279.5"/>
      <polygon class="cls-4" points="32.42 228.1 32.53 227.03 40.01 227.8 39.9 228.88 32.42 228.1"/>
      <polygon class="cls-4" points="459.99 272.2 460.1 271.12 467.58 271.89 467.47 272.97 459.99 272.2"/>
      <polygon class="cls-4" points="31.44 243.31 31.48 242.23 39 242.48 38.97 243.56 31.44 243.31"/>
      <polygon class="cls-4" points="461 257.52 461.04 256.44 468.56 256.69 468.52 257.77 461 257.52"/>
      <polygon class="cls-4" points="31.36 250.93 31.35 249.85 38.88 249.83 38.88 250.91 31.36 250.93"/>
      <polygon class="cls-4" points="461.12 250.17 461.12 249.08 468.64 249.07 468.65 250.15 461.12 250.17"/>
      <polygon class="cls-4" points="31.54 258.54 31.49 257.46 39.01 257.19 39.05 258.27 31.54 258.54"/>
      <polygon class="cls-4" points="460.99 242.81 460.95 241.73 468.47 241.45 468.51 242.53 460.99 242.81"/>
      <polygon class="cls-4" points="31.98 266.15 31.9 265.07 39.41 264.54 39.48 265.62 31.98 266.15"/>
      <polygon class="cls-4" points="460.6 235.46 460.52 234.38 468.02 233.85 468.1 234.92 460.6 235.46"/>
      <polygon class="cls-4" points="33.67 281.3 33.51 280.23 40.96 279.17 41.12 280.24 33.67 281.3"/>
      <polygon class="cls-4" points="459.04 220.83 458.89 219.76 466.34 218.7 466.49 219.77 459.04 220.83"/>
      <polygon class="cls-4" points="34.91 288.82 34.71 287.75 42.12 286.44 42.31 287.5 34.91 288.82"/>
      <polygon class="cls-4" points="457.88 213.56 457.69 212.5 465.1 211.18 465.29 212.24 457.88 213.56"/>
      <polygon class="cls-4" points="36.41 296.29 36.18 295.24 43.53 293.66 43.76 294.72 36.41 296.29"/>
      <polygon class="cls-4" points="456.47 206.34 456.24 205.28 463.6 203.7 463.82 204.76 456.47 206.34"/>
      <polygon class="cls-4" points="38.17 303.71 37.9 302.66 45.2 300.83 45.46 301.88 38.17 303.71"/>
      <polygon class="cls-4" points="454.8 199.17 454.54 198.12 461.83 196.29 462.1 197.34 454.8 199.17"/>
      <polygon class="cls-4" points="42.46 318.34 42.12 317.31 49.27 314.98 49.61 316 42.46 318.34"/>
      <polygon class="cls-4" points="450.73 185.02 450.39 183.99 457.54 181.66 457.88 182.68 450.73 185.02"/>
      <polygon class="cls-4" points="44.99 325.53 44.62 324.52 51.68 321.94 52.05 322.95 44.99 325.53"/>
      <polygon class="cls-4" points="448.32 178.06 447.95 177.04 455.01 174.46 455.39 175.48 448.32 178.06"/>
      <polygon class="cls-4" points="47.77 332.63 47.36 331.63 54.33 328.81 54.74 329.81 47.77 332.63"/>
      <polygon class="cls-4" points="445.68 171.19 445.27 170.19 452.23 167.36 452.64 168.36 445.68 171.19"/>
      <polygon class="cls-4" points="50.79 339.64 50.35 338.65 57.21 335.58 57.66 336.57 50.79 339.64"/>
      <polygon class="cls-4" points="442.79 164.41 442.35 163.43 449.21 160.36 449.65 161.35 442.79 164.41"/>
      <polygon class="cls-4" points="57.56 353.3 57.05 352.35 63.69 348.81 64.2 349.76 57.56 353.3"/>
      <polygon class="cls-4" points="436.32 151.18 435.81 150.23 442.44 146.69 442.95 147.65 436.32 151.18"/>
      <polygon class="cls-4" points="61.3 359.95 60.76 359.02 67.26 355.25 67.81 356.18 61.3 359.95"/>
      <polygon class="cls-4" points="432.74 144.75 432.19 143.81 438.7 140.04 439.24 140.98 432.74 144.75"/>
      <polygon class="cls-4" points="65.27 366.46 64.7 365.55 71.06 361.56 71.64 362.47 65.27 366.46"/>
      <polygon class="cls-4" points="428.94 138.44 428.36 137.52 434.73 133.53 435.31 134.44 428.94 138.44"/>
      <polygon class="cls-4" points="69.47 372.84 68.86 371.94 75.08 367.73 75.69 368.63 69.47 372.84"/>
      <polygon class="cls-4" points="424.92 132.26 424.31 131.37 430.53 127.16 431.14 128.05 424.92 132.26"/>
      <polygon class="cls-4" points="78.51 385.13 77.84 384.28 83.76 379.64 84.43 380.49 78.51 385.13"/>
      <polygon class="cls-4" points="416.24 120.35 415.57 119.5 421.49 114.87 422.16 115.72 416.24 120.35"/>
      <polygon class="cls-4" points="83.35 391.03 82.65 390.2 88.4 385.36 89.1 386.19 83.35 391.03"/>
      <polygon class="cls-4" points="411.6 114.63 410.9 113.81 416.65 108.97 417.35 109.79 411.6 114.63"/>
      <polygon class="cls-4" points="88.39 396.76 87.67 395.96 93.24 390.92 93.97 391.72 88.39 396.76"/>
      <polygon class="cls-4" points="406.76 109.08 406.04 108.27 411.61 103.24 412.34 104.04 406.76 109.08"/>
      <polygon class="cls-4" points="93.63 402.31 92.88 401.53 98.27 396.31 99.03 397.08 93.63 402.31"/>
      <polygon class="cls-4" points="401.73 103.69 400.98 102.91 406.37 97.69 407.12 98.46 401.73 103.69"/>
      <polygon class="cls-4" points="104.67 412.85 103.86 412.12 108.88 406.53 109.69 407.25 104.67 412.85"/>
      <polygon class="cls-4" points="391.12 93.46 390.31 92.74 395.33 87.15 396.14 87.87 391.12 93.46"/>
      <polygon class="cls-4" points="110.46 417.82 109.63 417.13 114.45 411.36 115.28 412.06 110.46 417.82"/>
      <polygon class="cls-4" points="385.55 88.63 384.72 87.94 389.54 82.17 390.37 82.87 385.55 88.63"/>
      <polygon class="cls-4" points="116.42 422.59 115.57 421.93 120.18 416 121.03 416.66 116.42 422.59"/>
      <polygon class="cls-4" points="379.82 84 378.97 83.33 383.58 77.4 384.44 78.07 379.82 84"/>
      <rect class="cls-4" x="120.55" y="423.25" width="7.51" height="1.08" transform="translate(-292.04 276.45) rotate(-54.16)"/>
      <polygon class="cls-4" points="373.93 79.56 373.05 78.93 377.46 72.85 378.33 73.48 373.93 79.56"/>
      <rect class="cls-4" x="133.01" y="431.6" width="7.51" height="1.08" transform="translate(-302.51 320.41) rotate(-58.17)"/>
      <rect class="cls-4" x="359.47" y="67.31" width="7.51" height="1.08" transform="translate(114 340.66) rotate(-58.17)"/>
      <rect class="cls-4" x="139.46" y="435.45" width="7.51" height="1.08" transform="translate(-306.25 343.36) rotate(-60.17)"/>
      <rect class="cls-4" x="353.03" y="63.46" width="7.51" height="1.08" transform="translate(123.79 341.69) rotate(-60.17)"/>
      <rect class="cls-4" x="146.03" y="439.07" width="7.51" height="1.08" transform="translate(-308.9 366.83) rotate(-62.17)"/>
      <rect class="cls-4" x="346.46" y="59.84" width="7.51" height="1.08" transform="translate(133.31 341.9) rotate(-62.17)"/>
      <rect class="cls-4" x="152.73" y="442.45" width="7.51" height="1.08" transform="translate(-310.42 390.74) rotate(-64.16)"/>
      <rect class="cls-4" x="339.77" y="56.46" width="7.51" height="1.08" transform="translate(142.34 341.22) rotate(-64.13)"/>
    </g>
    <path class="cls-4" d="m154.7,465.57c-29.17-12.9-54.95-31.1-76.62-54.12-20.93-22.23-37.17-47.99-48.26-76.56-11.09-28.57-16.48-58.51-16.02-88.99.48-31.56,7.25-62.32,20.11-91.42,12.86-29.1,31.06-54.81,54.08-76.4,22.23-20.86,48-37.03,76.6-48.05,28.6-11.03,58.58-16.35,89.11-15.84,31.61.54,62.43,7.35,91.6,20.24,29.17,12.9,54.95,31.1,76.62,54.12,20.93,22.23,37.17,47.99,48.26,76.56,11.09,28.57,16.48,58.51,16.02,88.99-.48,31.56-7.25,62.32-20.11,91.42-12.86,29.1-31.06,54.81-54.08,76.4-22.23,20.86-48,37.03-76.6,48.05-28.6,11.03-58.58,16.35-89.11,15.84-31.61-.54-62.43-7.35-91.6-20.24ZM344.28,36.74c-28.86-12.76-59.35-19.49-90.62-20.02-30.2-.51-59.86,4.76-88.15,15.67-28.29,10.91-53.79,26.9-75.78,47.54-22.77,21.36-40.77,46.79-53.49,75.59-12.73,28.79-19.42,59.22-19.9,90.44-.46,30.15,4.87,59.78,15.84,88.04,10.97,28.26,27.04,53.75,47.74,75.74,21.44,22.77,46.94,40.78,75.8,53.54,28.86,12.76,59.35,19.49,90.62,20.02,30.2.51,59.86-4.76,88.15-15.67,28.29-10.91,53.79-26.9,75.78-47.54,22.77-21.36,40.77-46.79,53.49-75.59,12.73-28.79,19.42-59.22,19.9-90.44.46-30.15-4.87-59.78-15.85-88.04-10.97-28.27-27.04-53.75-47.74-75.74-21.44-22.77-46.94-40.78-75.8-53.54Z"/>
    <polygon class="cls-4" points="417.75 331.57 420.67 324.95 429.08 328.66 430.61 325.21 422.2 321.49 424.71 315.83 433.59 319.76 435.14 316.27 422.3 310.59 412.26 333.32 425.57 339.2 427.11 335.71 417.75 331.57"/>
    <path class="cls-4" d="m335.69,71.54l-4.24,9.6c-.97,2.19-1.82,4.19-2.6,6.24-.13-1.83-.35-3.75-.65-5.79l-2.16-14.32-3.94-1.74-10.05,22.72,3.79,1.67,4.33-9.79c1.11-2.52,1.97-4.55,2.74-6.49.14,1.84.38,3.9.73,6.32l2.08,14.33,3.72,1.65,10.05-22.72-3.79-1.67Z"/>
    <path class="cls-4" d="m178.71,416.67c-2.47-2.46-3.03-3.77-2.33-5.36.54-1.22,2.09-2.25,4.67-1.11,1.72.76,2.8,1.86,3.41,2.65l.46.6,2.64-2.87-.31-.42c-.56-.75-1.9-2.19-4.56-3.37-4.46-1.97-8.74-.7-10.42,3.09-1.34,3.03-.31,6.09,3.14,9.34,2.57,2.56,2.7,3.91,2.05,5.39-.85,1.91-2.88,2.44-5.32,1.36-1.59-.7-3.13-1.98-4.12-3.4l-.47-.68-2.58,3,.25.39c.92,1.44,3.05,3.11,5.19,4.05,6.02,2.66,9.77-.05,11.15-3.18s.58-6.06-2.85-9.48Z"/>
    <path class="cls-4" d="m92.28,171.97l-5.96,7.17c-.65.78-1.31,1.6-1.95,2.45.15-.98.29-2.03.42-3.18l1.07-9.27-3.22-1.42-6.34,7.13c-.68.78-1.37,1.58-2.04,2.38.18-.99.35-2,.52-3.06l1.51-9.26-4.11-1.82-2.33,18.87,3.41,1.51,6.07-6.59c.71-.78,1.44-1.62,2.2-2.55-.17,1.07-.3,2.14-.43,3.29l-.94,8.9,3.41,1.51,12.73-14.27-4.02-1.78Z"/>
    <g class="cls-2">
      <g>
        <path class="cls-4" d="m419.13,187.95l-5.12,1.96c-1.91.73-3.38,1.34-4.95,2.14l-.03-.04c.99-1.16,1.96-2.49,2.98-4.11l4.41-6.98-.78-2.03-12.24,4.69.68,1.75,5.23-2c2.03-.78,3.49-1.38,4.99-2.08l.04.06c-1.05,1.23-2.07,2.73-3.05,4.25l-4.45,6.95.72,1.88,12.24-4.69-.67-1.75Z"/>
        <polygon class="cls-4" points="422.72 201.22 424.05 200.71 421.05 192.94 408.81 197.63 411.93 205.72 413.26 205.21 410.85 198.98 415.27 197.29 417.42 202.88 418.73 202.38 416.57 196.79 420.44 195.31 422.72 201.22"/>
      </g>
      <g>
        <path class="cls-4" d="m181.76,81.65l1.97,5.12c.73,1.9,1.35,3.38,2.15,4.94l-.04.03c-1.17-.99-2.5-1.96-4.12-2.98l-7-4.42-2.03.78,4.72,12.23,1.75-.67-2.01-5.23c-.78-2.03-1.39-3.49-2.1-4.99l.06-.04c1.24,1.05,2.74,2.07,4.27,3.05l6.97,4.45,1.88-.72-4.72-12.23-1.75.67Z"/>
        <path class="cls-4" d="m197.45,82.37l4.27,5.67,1.94-.74-.64-13.79-1.9.73.48,6.9c.14,1.7.26,3.21.48,4.67l-.04.02c-.71-1.21-1.65-2.51-2.62-3.81l-4.15-5.53-1.94.74.46,6.91c.12,1.77.23,3.39.46,4.7l-.04.02c-.71-1.08-1.68-2.46-2.7-3.82l-4.1-5.53-1.97.75,8.37,10.83,1.94-.74-.41-7.15c-.07-1.78-.22-3.1-.43-4.42l.04-.02c.67,1.16,1.43,2.24,2.48,3.63Z"/>
      </g>
      <g>
        <path class="cls-4" d="m96.66,322.21c-1.31-3.39-3.58-4.41-5.47-3.69-1.8.69-2.32,2.31-2.18,5.05.11,2.24-.11,3.33-1.26,3.76-.84.32-2.12-.04-2.88-2.01-.5-1.3-.51-2.4-.47-2.95l-1.49-.02c-.06.76.06,1.94.63,3.41,1.08,2.8,3.21,4.11,5.12,3.38,1.73-.66,2.2-2.51,2-5.13-.11-2.19.24-3.2,1.39-3.64,1.23-.47,2.52.31,3.25,2.21.49,1.28.6,2.64.48,3.64l1.51-.04c.14-.94-.1-2.58-.64-3.97Z"/>
        <path class="cls-4" d="m91.9,310.41l-7.16.39c-1.79.07-3.11.21-4.42.42l-.02-.04c1.16-.66,2.24-1.42,3.63-2.47l5.67-4.26-.75-1.94-13.81.61.73,1.9,6.91-.46c1.7-.14,3.22-.25,4.68-.47l.02.04c-1.21.71-2.51,1.65-3.81,2.61l-5.54,4.13.75,1.94,6.92-.44c1.77-.11,3.39-.22,4.7-.45l.02.04c-1.08.71-2.46,1.68-3.82,2.69l-5.53,4.08.76,1.96,10.83-8.34-.75-1.94Z"/>
      </g>
      <polygon class="cls-4" points="445.99 178.43 426.54 185.93 427.47 188.3 446.91 180.8 445.99 178.43"/>
      <polygon class="cls-4" points="74.81 316.55 55.36 324.05 56.28 326.42 75.73 318.92 74.81 316.55"/>
      <polygon class="cls-4" points="320.67 422.66 318.3 423.57 325.84 443 328.21 442.08 320.67 422.66"/>
      <polygon class="cls-4" points="176.9 55.5 184.44 74.93 186.82 74.01 179.28 54.59 176.9 55.5"/>
      <g>
        <path class="cls-4" d="m326.5,411.19c-.66-1.72-2.52-2.2-5.14-2.01-2.19.11-3.21-.25-3.65-1.39-.48-1.23.31-2.51,2.21-3.24,1.28-.49,2.64-.59,3.64-.48l-.04-1.5c-.94-.14-2.59.1-3.98.63-3.4,1.3-4.41,3.56-3.68,5.45.69,1.8,2.32,2.32,5.06,2.19,2.24-.11,3.33.12,3.77,1.26.32.83-.04,2.12-2.01,2.87-1.3.5-2.4.5-2.96.47l-.02,1.48c.76.06,1.94-.06,3.41-.62,2.8-1.07,4.11-3.2,3.38-5.1Z"/>
        <polygon class="cls-4" points="303.93 409.38 304.44 410.7 310.68 408.31 312.38 412.72 306.78 414.87 307.28 416.17 312.88 414.03 314.37 417.89 308.45 420.16 308.96 421.49 316.74 418.51 312.03 406.28 303.93 409.38"/>
      </g>
    </g>
  </g>
  <g>
    <g>
      <polygon class="cls-4" points="234.31 265.66 329.44 329.26 170.56 170.74 234.31 265.66"/>
      <polygon class="cls-3" points="170.56 170.74 329.44 329.26 265.69 234.34 170.56 170.74"/>
    </g>
    <g>
      <polygon class="cls-4" points="234.31 234.34 170.56 329.26 329.44 170.74 234.31 234.34"/>
      <polygon class="cls-3" points="329.44 170.74 170.56 329.26 265.69 265.66 329.44 170.74"/>
    </g>
    <path class="cls-4" d="m250,309.65c-32.97,0-59.79-26.76-59.79-59.65s26.82-59.65,59.79-59.65,59.79,26.76,59.79,59.65-26.82,59.65-59.79,59.65Zm0-118.44c-32.49,0-58.92,26.37-58.92,58.78s26.43,58.79,58.92,58.79,58.92-26.37,58.92-58.79-26.43-58.78-58.92-58.78Z"/>
    <path class="cls-4" d="m250,319.81c-38.58,0-69.97-31.32-69.97-69.81s31.39-69.81,69.97-69.81,69.97,31.32,69.97,69.81-31.39,69.81-69.97,69.81Zm0-135.53c-36.33,0-65.88,29.48-65.88,65.73s29.55,65.73,65.88,65.73,65.88-29.48,65.88-65.73-29.55-65.73-65.88-65.73Z"/>
    <g>
      <g>
        <path class="cls-3" d="m250.17,258.78c-4.86,0-8.8-3.93-8.8-8.78H97.5l147.44,17.72c1.33.31,2.72.48,4.14.48,10.07,0,18.24-8.15,18.24-18.2h-8.35c0,4.85-3.94,8.78-8.8,8.78Z"/>
        <path class="cls-4" d="m249.08,231.8c-1.42,0-2.81.17-4.14.48l-147.44,17.72h143.87c0-4.85,3.94-8.78,8.8-8.78s8.8,3.93,8.8,8.78h8.35c0-10.05-8.17-18.2-18.24-18.2Z"/>
      </g>
      <g>
        <path class="cls-4" d="m249.83,241.22c4.86,0,8.8,3.93,8.8,8.78h143.87l-147.44-17.72c-1.33-.31-2.72-.48-4.14-.48-10.07,0-18.24,8.15-18.24,18.2h8.35c0-4.85,3.94-8.78,8.8-8.78Z"/>
        <path class="cls-3" d="m250.92,268.2c1.42,0,2.81-.17,4.14-.48l147.44-17.72h-143.87c0,4.85-3.94,8.78-8.8,8.78s-8.8-3.93-8.8-8.78h-8.35c0,10.05,8.17,18.2,18.24,18.2Z"/>
      </g>
    </g>
    <g>
      <g>
        <path class="cls-3" d="m241.22,250.17c0-4.86,3.93-8.8,8.78-8.8V97.5l-17.72,147.44c-.31,1.33-.48,2.72-.48,4.14,0,10.07,8.15,18.24,18.2,18.24v-8.35c-4.85,0-8.78-3.94-8.78-8.8Z"/>
        <path class="cls-4" d="m268.2,249.08c0-1.42-.17-2.81-.48-4.14l-17.72-147.44h0v143.87c4.85,0,8.78,3.94,8.78,8.8s-3.93,8.8-8.78,8.8v8.35h0c10.05,0,18.2-8.17,18.2-18.24Z"/>
      </g>
      <g>
        <path class="cls-4" d="m258.78,249.83c0,4.86-3.93,8.8-8.78,8.8v143.87l17.72-147.44c.31-1.33.48-2.72.48-4.14,0-10.07-8.15-18.24-18.2-18.24v8.35c4.85,0,8.78,3.94,8.78,8.8Z"/>
        <path class="cls-3" d="m231.8,250.92c0,1.42.17,2.81.48,4.14l17.72,147.44h0v-143.87c-4.85,0-8.78-3.94-8.78-8.8s3.93-8.8,8.78-8.8v-8.35h0c-10.05,0-18.2,8.17-18.2,18.24Z"/>
      </g>
    </g>
    <circle class="cls-1" cx="250" cy="250" r="27.26"/>
  </g>
</svg>